<?xml version="1.0" encoding="UTF-8" standalone="no"?>
<!-- Created with Inkscape (http://www.inkscape.org/) -->

<svg
   width="210mm"
   height="297mm"
   viewBox="0 0 210 297"
   version="1.1"
   id="svg1"
   inkscape:version="1.3.2 (091e20e, 2023-11-25, custom)"
   sodipodi:docname="Tema_3_ej._5_AND_OR_NOT.svg"
   xmlns:inkscape="http://www.inkscape.org/namespaces/inkscape"
   xmlns:sodipodi="http://sodipodi.sourceforge.net/DTD/sodipodi-0.dtd"
   xmlns="http://www.w3.org/2000/svg"
   xmlns:svg="http://www.w3.org/2000/svg">
  <sodipodi:namedview
     id="namedview1"
     pagecolor="#ffffff"
     bordercolor="#999999"
     borderopacity="1"
     inkscape:showpageshadow="2"
     inkscape:pageopacity="0"
     inkscape:pagecheckerboard="0"
     inkscape:deskcolor="#d1d1d1"
     inkscape:document-units="mm"
     showguides="true"
     inkscape:zoom="3.9156336"
     inkscape:cx="148.50726"
     inkscape:cy="299.69607"
     inkscape:window-width="1920"
     inkscape:window-height="991"
     inkscape:window-x="-9"
     inkscape:window-y="-9"
     inkscape:window-maximized="1"
     inkscape:current-layer="layer1" />
  <defs
     id="defs1" />
  <g
     inkscape:label="Capa 1"
     inkscape:groupmode="layer"
     id="layer1">
    <path
       id="rect1"
       style="fill:#ff0000;stroke:#000000;stroke-width:0.123389;stroke-linejoin:round;paint-order:stroke markers fill"
       d="m 13.504607,66.452918 0.0027,3.230291 2.79626,-1.617314 z m -6.27333,0.590196 v 2.0499 h 6.14994 v -2.0499 z" />
    <path
       id="rect1-2"
       style="fill:#ffffff;stroke:#000000;stroke-width:0.123389;stroke-linejoin:round;paint-order:stroke markers fill"
       d="m 74.635362,71.771518 0.0027,3.230291 2.79626,-1.617314 z m -6.27333,0.590196 v 2.0499 h 6.14994 v -2.0499 z" />
    <path
       id="rect1-0"
       style="fill:#ffffff;stroke:#000000;stroke-width:0.123389;stroke-linejoin:round;paint-order:stroke markers fill"
       d="m 71.797017,93.242642 0.0027,3.230291 2.79626,-1.617314 z m -6.27333,0.590196 v 2.0499 h 6.14994 v -2.0499 z" />
    <path
       id="rect1-1"
       style="fill:#0000ff;stroke:#000000;stroke-width:0.123389;stroke-linejoin:round;paint-order:stroke markers fill"
       d="m 14.364646,96.563346 0.0027,3.23029 2.79626,-1.61731 z m -6.2733305,0.5902 v 2.0499 h 6.1499405 v -2.0499 z" />
    <path
       id="rect1-1-3"
       style="fill:#808080;stroke:#000000;stroke-width:0.123389;stroke-linejoin:round;paint-order:stroke markers fill"
       d="m 13.889504,81.159468 0.0027,3.230291 2.79626,-1.617315 z m -6.2733296,0.590195 v 2.049899 h 6.1499406 v -2.049899 z" />
    <path
       id="path2"
       style="fill:#ffffff;stroke:#000000;stroke-width:0.264583;stroke-linejoin:round;paint-order:stroke markers fill"
       d="m 37.162548,65.406799 v 0.996322 H 35.65463 v 0.0677 h 1.507918 v 2.356445 2.356963 H 35.65463 v 0.0677 h 1.507918 v 0.996321 a 3.4207828,3.4207828 0 0 0 2.96261,-1.71049 3.4207828,3.4207828 0 0 0 0,-3.420463 3.4207828,3.4207828 0 0 0 -2.96261,-1.71049 z" />
    <path
       id="path2-9"
       style="fill:#ffffff;stroke:#000000;stroke-width:0.264583;stroke-linejoin:round;paint-order:stroke markers fill"
       d="m 42.728819,76.752113 v 0.996322 h -1.507918 v 0.0677 h 1.507918 v 2.356445 2.356963 h -1.507918 v 0.0677 h 1.507918 v 0.996321 a 3.4207828,3.4207828 0 0 0 2.96261,-1.71049 3.4207828,3.4207828 0 0 0 0,-3.420463 3.4207828,3.4207828 0 0 0 -2.96261,-1.71049 z" />
    <path
       id="path2-9-9"
       style="fill:#ffffff;stroke:#000000;stroke-width:0.264583;stroke-linejoin:round;paint-order:stroke markers fill"
       d="m 42.40814,86.082975 v 0.996322 h -1.507918 v 0.0677 h 1.507918 v 2.356445 2.356963 h -1.507918 v 0.0677 h 1.507918 v 0.996321 a 3.4207828,3.4207828 0 0 0 2.96261,-1.71049 3.4207828,3.4207828 0 0 0 0,-3.420463 3.4207828,3.4207828 0 0 0 -2.96261,-1.71049 z" />
    <path
       id="path2-9-2"
       style="fill:#ffffff;stroke:#000000;stroke-width:0.264583;stroke-linejoin:round;paint-order:stroke markers fill"
       d="m 37.079454,94.789684 v 0.996322 h -1.507918 v 0.0677 h 1.507918 v 2.356445 2.356959 h -1.507918 v 0.0677 h 1.507918 v 0.99632 a 3.4207828,3.4207828 0 0 0 2.96261,-1.710485 3.4207828,3.4207828 0 0 0 0,-3.420463 3.4207828,3.4207828 0 0 0 -2.96261,-1.71049 z" />
    <path
       id="path2-3"
       style="fill:#ffffff;stroke:#000000;stroke-width:0.264583;stroke-linejoin:round;paint-order:stroke markers fill"
       d="m 55.506555,70.21642 v 0.0067 a 1.3135713,3.4705663 0 0 1 0.624768,0.773596 h -1.505334 v 0.0677 h 1.507918 v -0.06098 a 1.3135713,3.4705663 0 0 1 0.286804,0.898653 1.3135713,3.4705663 0 0 1 0,3.47059 1.3135713,3.4705663 0 0 1 -0.292488,0.912089 v -0.04806 h -1.507919 v 0.0677 h 1.49965 a 1.3135713,3.4705663 0 0 1 -0.613399,0.746724 v 0.0067 a 3.4207828,3.4207828 0 0 0 2.96261,-1.709973 3.4207828,3.4207828 0 0 0 0,-3.42098 3.4207828,3.4207828 0 0 0 -2.96261,-1.71049 z" />
    <path
       id="path2-3-4"
       style="fill:#ffffff;stroke:#000000;stroke-width:0.264583;stroke-linejoin:round;paint-order:stroke markers fill"
       d="m 54.695528,91.236641 v 0.0067 a 1.3135713,3.4705663 0 0 1 0.624768,0.773596 h -1.505334 v 0.0677 h 1.507918 v -0.06098 a 1.3135713,3.4705663 0 0 1 0.286804,0.898653 1.3135713,3.4705663 0 0 1 0,3.47059 1.3135713,3.4705663 0 0 1 -0.292488,0.912089 v -0.04806 h -1.507919 v 0.0677 h 1.49965 a 1.3135713,3.4705663 0 0 1 -0.613399,0.746724 v 0.0067 a 3.4207828,3.4207828 0 0 0 2.96261,-1.709973 3.4207828,3.4207828 0 0 0 0,-3.42098 3.4207828,3.4207828 0 0 0 -2.96261,-1.71049 z" />
    <path
       id="path3"
       style="fill:#ffffff;stroke:#000000;stroke-width:0.264583;stroke-linejoin:round;paint-order:stroke markers fill"
       inkscape:transform-center-x="-0.67968195"
       inkscape:transform-center-y="0.069795911"
       d="m 22.905183,84.503696 -0.0036,4.554761 3.946529,-2.27428 z m 4.828129,1.656747 a 0.62080866,0.62080866 0 0 0 -0.620635,0.620633 0.62080866,0.62080866 0 0 0 0.620635,0.620635 0.62080866,0.62080866 0 0 0 0.620633,-0.620634 0.62080866,0.62080866 0 0 0 -0.620633,-0.620634 z" />
    <path
       id="path3-7"
       style="fill:#ffffff;stroke:#000000;stroke-width:0.264583;stroke-linejoin:round;paint-order:stroke markers fill"
       inkscape:transform-center-x="-0.06979545"
       inkscape:transform-center-y="-0.67968159"
       d="m 25.676531,96.931601 4.554761,0.0036 -2.27428,-3.946529 z m 1.656747,-4.828129 a 0.62080866,0.62080866 0 0 0 0.620633,0.620635 0.62080866,0.62080866 0 0 0 0.620635,-0.620635 0.62080866,0.62080866 0 0 0 -0.620634,-0.620633 0.62080866,0.62080866 0 0 0 -0.620634,0.620633 z" />
    <path
       id="path3-7-9"
       style="fill:#ffffff;stroke:#000000;stroke-width:0.264583;stroke-linejoin:round;paint-order:stroke markers fill"
       inkscape:transform-center-x="0.06979555"
       inkscape:transform-center-y="0.67968141"
       d="m 27.514894,72.449865 -4.554761,-0.0036 2.27428,3.946529 z m -1.656747,4.828129 a 0.62080866,0.62080866 0 0 0 -0.620633,-0.620635 0.62080866,0.62080866 0 0 0 -0.620635,0.620635 0.62080866,0.62080866 0 0 0 0.620634,0.620633 0.62080866,0.62080866 0 0 0 0.620634,-0.620633 z" />
    <path
       style="fill:#ff0000;stroke:#ff0000;stroke-width:0.264583;stroke-linejoin:round;paint-order:stroke markers fill"
       d="M 16.303567,68.065895 35.65463,66.47082"
       id="path4" />
    <path
       style="fill:#ff0000;stroke:#ff0000;stroke-width:0.264583;stroke-linejoin:round;paint-order:stroke markers fill"
       d="M 25.237513,72.448065 24.818445,67.364027"
       id="path5" />
    <path
       style="fill:none;stroke:#ff0000;stroke-width:0.264583;stroke-linejoin:round;paint-order:stroke markers fill"
       d="m 25.237513,77.898627 0.03405,4.470439 10.135652,0.270283 0.164324,13.214353"
       id="path6"
       sodipodi:nodetypes="cccc" />
    <path
       style="fill:none;stroke:#ff0000;stroke-width:0.264583;stroke-linejoin:round;paint-order:stroke markers fill"
       d="m 31.604622,66.804656 -0.1841,12.050717 9.800378,-1.039238"
       id="path7" />
    <circle
       style="fill:#ff0000;stroke:#ff0000;stroke-width:0.264583;stroke-linejoin:round;paint-order:stroke markers fill"
       id="path8"
       cx="24.746729"
       cy="67.517418"
       r="0.66205603" />
    <circle
       style="fill:#808080;stroke:#808080;stroke-width:0.264583;stroke-linejoin:round;paint-order:stroke markers fill;stroke-opacity:1"
       id="path8-1"
       cx="20.4058"
       cy="82.784607"
       r="0.66205603" />
    <circle
       style="fill:#ff0000;stroke:#ff0000;stroke-width:0.264583;stroke-linejoin:round;paint-order:stroke markers fill"
       id="path8-0"
       cx="31.594328"
       cy="66.962143"
       r="0.66205603" />
    <circle
       style="fill:#0000ff;stroke:#0000ff;stroke-width:0.264583;stroke-linejoin:round;paint-order:stroke markers fill"
       id="path8-0-5"
       cx="32.92622"
       cy="100.08844"
       r="0.66205603" />
    <circle
       style="fill:#0000ff;stroke:#0000ff;stroke-width:0.264583;stroke-linejoin:round;paint-order:stroke markers fill"
       id="path8-0-5-1"
       cx="28.078716"
       cy="99.608757"
       r="0.66205603" />
    <path
       style="fill:#0000ff;stroke:#0000ff;stroke-width:0.264583;stroke-linejoin:round;paint-order:stroke markers fill"
       d="m 17.163606,98.176325 18.407929,2.424635"
       id="path9" />
    <path
       style="fill:none;stroke:#0000ff;stroke-width:0.264583;stroke-linejoin:round;paint-order:stroke markers fill"
       d="m 32.914743,100.25102 0.668052,-8.286871 h 0.912206 c 0.477143,-2.431609 1.457597,-1.910341 2.669056,-0.03379 l 3.736165,-0.0024"
       id="path12"
       sodipodi:nodetypes="ccccc" />
    <path
       style="fill:none;stroke:#0000ff;stroke-width:0.264583;stroke-linejoin:round;paint-order:stroke markers fill"
       d="M 27.991818,99.602582 27.953911,96.9334"
       id="path13" />
    <path
       style="fill:none;stroke:#0000ff;stroke-width:0.264583;stroke-linejoin:round;paint-order:stroke markers fill"
       d="m 27.953911,91.482838 v -2.356671 h 5.932954 v -4.6624 c -2.831214,-1.34972 -0.808381,-2.142418 0,-3.074479 l -0.02389,-1.873605 c -2.263329,-1.007897 -0.169617,-1.563143 0.02389,-2.3158 v -6.007798 h 1.767765"
       id="path14"
       sodipodi:nodetypes="ccccccccc" />
    <path
       style="fill:none;stroke:#808080;stroke-width:0.264583;stroke-linejoin:round;paint-order:stroke markers fill;stroke-opacity:1"
       d="m 16.688464,82.772442 h 3.809123 v -2.024375 h 3.583494 c 0.561459,-1.375512 1.202514,-2.494011 2.962354,0 h 5.685811 c 0.261763,-1.004484 1.67131,-0.772895 3.583496,0 h 4.539091 l 0.495485,1.849176"
       id="path15"
       sodipodi:nodetypes="ccccccccc" />
    <path
       style="fill:none;stroke:#808080;stroke-width:0.264583;stroke-linejoin:round;paint-order:stroke markers fill;stroke-opacity:1"
       d="m 20.497587,82.772442 v 4.139237 h 2.405692"
       id="path16" />
    <path
       style="fill:none;stroke:#808080;stroke-width:0.264583;stroke-linejoin:round;paint-order:stroke markers fill;stroke-opacity:1"
       d="m 28.353946,86.781075 h 3.324142 c 1.908696,-0.676991 2.001092,-3.315977 6.450291,0 l 2.771843,0.29822"
       id="path17"
       sodipodi:nodetypes="cccc" />
    <path
       style="fill:none;stroke:#000000;stroke-width:0.264583;stroke-linejoin:round;paint-order:stroke markers fill"
       d="m 40.582572,68.753904 14.043416,2.24281"
       id="path18" />
    <path
       style="fill:none;stroke:#000000;stroke-width:0.264583;stroke-linejoin:round;paint-order:stroke markers fill"
       d="m 46.147989,80.278935 8.472313,-3.974529"
       id="path19" />
    <path
       style="fill:none;stroke:#000000;stroke-width:0.264583;stroke-linejoin:round;paint-order:stroke markers fill"
       d="m 45.827984,89.585243 7.986977,2.431693"
       id="path20" />
    <path
       style="fill:none;stroke:#000000;stroke-width:0.264583;stroke-linejoin:round;paint-order:stroke markers fill"
       d="M 40.49419,98.006563 53.809278,97.324628"
       id="path21" />
    <path
       style="fill:#000000;stroke:#000000;stroke-width:0.264583;stroke-linejoin:round;paint-order:stroke markers fill"
       d="M 58.927356,73.670725 68.36203,73.386663"
       id="path22" />
    <path
       style="fill:#000000;stroke:#000000;stroke-width:0.264583;stroke-linejoin:round;paint-order:stroke markers fill"
       d="m 58.115705,94.731034 h 7.407981"
       id="path23" />
    <path
       id="text23"
       style="font-size:1.5875px;fill:#000000;stroke:#000000;stroke-width:0.132291;stroke-linejoin:round;paint-order:stroke markers fill"
       d="m 9.746732,67.539196 c -0.084749,0 -0.161747,0.01344 -0.23151,0.03979 -0.069247,0.02635 -0.128675,0.0646 -0.177767,0.114722 -0.050643,0.05168 -0.0894,0.114721 -0.116272,0.189652 -0.026872,0.07493 -0.040308,0.160197 -0.040308,0.255281 0,0.100252 0.013953,0.188103 0.041858,0.264067 0.027905,0.07545 0.066663,0.137977 0.116272,0.18707 0.050643,0.05012 0.110071,0.08682 0.178284,0.110586 0.068729,0.02326 0.145211,0.03514 0.228926,0.03514 0.044442,0 0.08475,-0.0036 0.12144,-0.01085 0.037207,-0.0067 0.07183,-0.01498 0.103353,-0.02481 0.037207,-0.01188 0.067179,-0.02325 0.089917,-0.0341 0.02325,-0.01085 0.04909,-0.02274 0.07752,-0.03514 v -0.179835 h -0.01085 c -0.05633,0.05064 -0.116789,0.08888 -0.181385,0.114205 -0.064595,0.02532 -0.133842,0.03772 -0.207739,0.03772 -0.053743,0 -0.104903,-0.0088 -0.153479,-0.02687 -0.048059,-0.0186 -0.090434,-0.04703 -0.126607,-0.08527 -0.034623,-0.03669 -0.063046,-0.08423 -0.085266,-0.142626 -0.021704,-0.0584 -0.032557,-0.128158 -0.032557,-0.209291 0,-0.07751 0.00982,-0.145726 0.029456,-0.204638 0.020154,-0.05943 0.048059,-0.108521 0.083716,-0.147278 0.03669,-0.03979 0.078548,-0.06925 0.125057,-0.08785 0.047025,-0.01912 0.099735,-0.02842 0.15813,-0.02842 0.071313,0 0.137976,0.01189 0.200504,0.03617 0.062529,0.02429 0.125574,0.06305 0.189136,0.116271 h 0.01189 v -0.1819 c -0.07545,-0.03772 -0.144178,-0.06408 -0.206189,-0.07906 -0.061495,-0.01499 -0.123507,-0.02274 -0.185519,-0.02274 z m 0.608749,0.02119 v 1.153935 h 0.153479 v -0.45889 h 0.216007 l 0.386023,0.458887 h 0.199471 l -0.434082,-0.504362 c 0.07338,-0.02842 0.130741,-0.0708 0.172599,-0.126607 0.04186,-0.05633 0.06305,-0.12609 0.06305,-0.20929 0,-0.06149 -0.01189,-0.112137 -0.03566,-0.151929 -0.02326,-0.04031 -0.05581,-0.07338 -0.09767,-0.09973 -0.03721,-0.02326 -0.07906,-0.03928 -0.125573,-0.04806 -0.04651,-0.0093 -0.104904,-0.01395 -0.174667,-0.01395 z m 0.153479,0.131775 h 0.18035 c 0.04134,0 0.07752,0.0031 0.108004,0.0093 0.03049,0.0057 0.05684,0.01602 0.07906,0.031 0.02687,0.01757 0.04599,0.03928 0.05736,0.06511 0.01189,0.02532 0.01757,0.05426 0.01757,0.08733 0,0.04341 -0.0057,0.07958 -0.01705,0.108005 -0.01085,0.02791 -0.02791,0.05271 -0.05116,0.07441 -0.02532,0.02325 -0.05581,0.03927 -0.09198,0.04806 -0.03617,0.0083 -0.07855,0.0124 -0.127124,0.0124 h -0.155029 z" />
    <text
       xml:space="preserve"
       style="font-size:1.86166px;fill:#000000;stroke:#000000;stroke-width:0.155138;stroke-linejoin:round;paint-order:stroke markers fill"
       x="9.9094677"
       y="98.928696"
       id="text24"><tspan
         sodipodi:role="line"
         id="tspan24"
         style="stroke-width:0.155138"
         x="9.9094677"
         y="98.928696">CL</tspan></text>
    <text
       xml:space="preserve"
       style="font-size:1.51905px;fill:#000000;stroke:#000000;stroke-width:0.126587;stroke-linejoin:round;paint-order:stroke markers fill"
       x="9.1653156"
       y="83.275681"
       id="text25"><tspan
         sodipodi:role="line"
         id="tspan25"
         style="stroke-width:0.126587"
         x="9.1653156"
         y="83.275681">SEL</tspan></text>
    <text
       xml:space="preserve"
       style="font-size:2.28707px;fill:#000000;stroke:#000000;stroke-width:0.190589;stroke-linejoin:round;paint-order:stroke markers fill"
       x="70.486694"
       y="74.222473"
       id="text26"><tspan
         sodipodi:role="line"
         id="tspan26"
         style="stroke-width:0.190589"
         x="70.486694"
         y="74.222473">R</tspan></text>
    <text
       xml:space="preserve"
       style="font-size:1.8998px;fill:#000000;stroke:#000000;stroke-width:0.158316;stroke-linejoin:round;paint-order:stroke markers fill"
       x="67.855316"
       y="95.456154"
       id="text27"><tspan
         sodipodi:role="line"
         id="tspan27"
         style="stroke-width:0.158316"
         x="67.855316"
         y="95.456154">L</tspan></text>
    <text
       xml:space="preserve"
       style="font-size:3.175px;fill:#000000;fill-opacity:1;stroke:#808080;stroke-width:0.264583;stroke-linejoin:round;stroke-opacity:1;paint-order:stroke markers fill"
       x="36.31274"
       y="62.973938"
       id="text28"><tspan
         sodipodi:role="line"
         id="tspan28"
         style="stroke-width:0.264583;fill:#000000"
         x="36.31274"
         y="62.973938" /></text>
    <path
       id="text29"
       style="font-size:1.23354px;fill:none;fill-opacity:1;stroke:#000000;stroke-width:0.102795;stroke-linejoin:round;stroke-opacity:1;paint-order:stroke markers fill"
       d="m 37.125167,63.260565 h 1.624191 z m 0.04651,0.555005 0.0036,0.216008 -0.218075,-0.128158 -0.03927,0.06615 0.22996,0.125057 -0.22996,0.12454 0.03927,0.06615 0.217558,-0.128674 -0.0031,0.216524 h 0.07803 l -0.0036,-0.216524 0.217558,0.128157 0.03876,-0.06615 -0.228926,-0.125057 0.228926,-0.123506 -0.03876,-0.06615 -0.218591,0.127641 0.0047,-0.216008 z m -1.564245,0.02429 c -0.06585,0 -0.125626,0.01001 -0.179834,0.03049 -0.05381,0.02048 -0.09983,0.04993 -0.137976,0.08888 -0.03935,0.04015 -0.06955,0.08957 -0.09043,0.147794 -0.02088,0.05822 -0.03152,0.124554 -0.03152,0.198438 0,0.0779 0.01087,0.146128 0.03256,0.205155 0.02168,0.05863 0.05189,0.107064 0.09043,0.145211 0.03935,0.03895 0.08549,0.06783 0.138493,0.0863 0.0534,0.01807 0.112717,0.02687 0.177767,0.02687 0.03453,0 0.06606,-0.0026 0.09457,-0.0083 0.02891,-0.0052 0.0556,-0.01201 0.0801,-0.01964 0.02891,-0.0092 0.0521,-0.01792 0.06976,-0.02635 0.01807,-0.0084 0.03838,-0.01723 0.06046,-0.02687 v -0.140043 h -0.0083 c -0.04377,0.03935 -0.09088,0.06921 -0.141077,0.08888 -0.05019,0.01968 -0.104327,0.02945 -0.161747,0.02945 -0.04176,0 -0.08111,-0.0071 -0.118856,-0.02119 -0.03734,-0.01446 -0.07008,-0.03643 -0.09819,-0.06615 -0.0269,-0.02851 -0.0494,-0.06573 -0.06666,-0.111104 -0.01686,-0.04537 -0.02532,-0.09922 -0.02532,-0.162264 0,-0.06023 0.008,-0.113388 0.02325,-0.159164 0.01566,-0.04618 0.03741,-0.08461 0.06511,-0.114721 0.02851,-0.03092 0.0605,-0.05324 0.09663,-0.0677 0.03654,-0.01486 0.07762,-0.02222 0.12299,-0.02222 0.05541,0 0.107476,0.009 0.156063,0.0279 0.04859,0.01887 0.09737,0.04908 0.146761,0.09043 h 0.0093 v -0.141594 c -0.05862,-0.02931 -0.112012,-0.04985 -0.160197,-0.0615 -0.04778,-0.01164 -0.09599,-0.01705 -0.144177,-0.01705 z m 2.503206,0 c -0.06585,0 -0.125626,0.01001 -0.179834,0.03049 -0.05381,0.02048 -0.09983,0.04993 -0.137976,0.08888 -0.03935,0.04015 -0.06955,0.08957 -0.09043,0.147794 -0.02088,0.05822 -0.03152,0.124554 -0.03152,0.198438 0,0.0779 0.01087,0.146128 0.03256,0.205155 0.02168,0.05863 0.05189,0.107064 0.09043,0.145211 0.03935,0.03895 0.08549,0.06783 0.138493,0.0863 0.0534,0.01807 0.112717,0.02687 0.177767,0.02687 0.03453,0 0.06606,-0.0026 0.09457,-0.0083 0.02891,-0.0052 0.0556,-0.01201 0.0801,-0.01964 0.02891,-0.0092 0.0521,-0.01792 0.06976,-0.02635 0.01807,-0.0084 0.03838,-0.01723 0.06046,-0.02687 v -0.140043 h -0.0083 c -0.04377,0.03935 -0.09088,0.06921 -0.141077,0.08888 -0.05019,0.01968 -0.104326,0.02945 -0.161747,0.02945 -0.04176,0 -0.08111,-0.0071 -0.118856,-0.02119 -0.03734,-0.01446 -0.07008,-0.03643 -0.09818,-0.06615 -0.0269,-0.02851 -0.0494,-0.06573 -0.06666,-0.111104 -0.01686,-0.04537 -0.02532,-0.09922 -0.02532,-0.162264 0,-0.06023 0.008,-0.113388 0.02325,-0.159164 0.01566,-0.04618 0.03741,-0.08461 0.06511,-0.114721 0.02851,-0.03092 0.0605,-0.05324 0.09663,-0.0677 0.03654,-0.01486 0.07762,-0.02222 0.12299,-0.02222 0.05541,0 0.107476,0.009 0.156062,0.0279 0.04859,0.01887 0.09737,0.04908 0.146761,0.09043 h 0.0093 v -0.141594 c -0.05862,-0.02931 -0.112012,-0.04985 -0.160197,-0.0615 -0.04778,-0.01164 -0.09599,-0.01705 -0.144177,-0.01705 z m -2.030367,0.01602 v 0.897103 h 0.119373 v -0.356568 h 0.167948 l 0.30024,0.356568 h 0.154513 l -0.337448,-0.392224 c 0.05702,-0.02209 0.101834,-0.05482 0.134359,-0.09819 0.03252,-0.04377 0.04909,-0.09813 0.04909,-0.16278 0,-0.04778 -0.0094,-0.0869 -0.02791,-0.117823 -0.01807,-0.03132 -0.04344,-0.05755 -0.07596,-0.07803 -0.02891,-0.01807 -0.06153,-0.03038 -0.09767,-0.03721 -0.03614,-0.0072 -0.08118,-0.01085 -0.135393,-0.01085 z m 2.503206,0 v 0.897103 h 0.567408 v -0.106454 h -0.448035 v -0.790649 z m -2.383833,0.102319 h 0.140559 c 0.03212,0 0.06003,0.0024 0.08372,0.0072 0.02369,0.0044 0.04371,0.01264 0.06098,0.02429 0.02088,0.01365 0.03612,0.03057 0.04496,0.05064 0.0092,0.01968 0.01344,0.042 0.01344,0.0677 0,0.03373 -0.0041,0.06163 -0.01292,0.08372 -0.0084,0.02168 -0.02172,0.04101 -0.03979,0.05788 -0.01968,0.01807 -0.04372,0.0309 -0.07183,0.03772 -0.02811,0.0064 -0.06096,0.0093 -0.0987,0.0093 h -0.120406 z" />
    <text
       xml:space="preserve"
       style="font-size:1.27783px;fill:#000000;fill-opacity:1;stroke:#000000;stroke-width:0.106485;stroke-linejoin:round;stroke-opacity:1;paint-order:stroke markers fill"
       x="40.497074"
       y="76.360817"
       id="text30"><tspan
         sodipodi:role="line"
         id="tspan30"
         style="fill:#000000;stroke-width:0.106485"
         x="40.497074"
         y="76.360817">CR*SEL</tspan></text>
    <path
       id="text31"
       style="font-size:1.11043px;fill:#000000;fill-opacity:1;stroke:#000000;stroke-width:0.0925355;stroke-linejoin:round;stroke-opacity:1;paint-order:stroke markers fill"
       d="M 43.097628 84.618091 L 45.104224 84.618091 L 43.097628 84.618091 z M 42.641842 84.939001 L 42.644942 85.133822 L 42.448572 85.018066 L 42.413432 85.078011 L 42.620138 85.190149 L 42.413432 85.302287 L 42.448572 85.361715 L 42.644425 85.245959 L 42.641842 85.441296 L 42.711605 85.441296 L 42.708504 85.245959 L 42.904875 85.361198 L 42.939498 85.30177 L 42.733309 85.189632 L 42.939498 85.078528 L 42.904875 85.018583 L 42.707987 85.133822 L 42.711605 84.939001 L 42.641842 84.939001 z M 41.387655 84.960706 C 41.328374 84.960706 41.274189 84.969659 41.225391 84.988094 C 41.176954 85.006529 41.135707 85.033647 41.101367 85.068709 C 41.065943 85.104856 41.039032 85.149105 41.020235 85.201518 C 41.001439 85.253931 40.991813 85.313291 40.991813 85.379801 C 40.991813 85.449926 41.001749 85.511667 41.021269 85.564803 C 41.040788 85.617577 41.0677 85.661205 41.102401 85.695544 C 41.137825 85.730607 41.179227 85.756432 41.226941 85.773059 C 41.275016 85.789325 41.32858 85.797347 41.387138 85.797347 C 41.418224 85.797347 41.44674 85.794656 41.472404 85.789596 C 41.49843 85.784896 41.522185 85.77941 41.544234 85.772542 C 41.57026 85.764229 41.591375 85.755845 41.607279 85.748254 C 41.623546 85.740664 41.641659 85.732642 41.66154 85.723966 L 41.66154 85.598393 L 41.653788 85.598393 C 41.614388 85.633817 41.572364 85.660263 41.527181 85.677974 C 41.481998 85.695686 41.43366 85.704329 41.38197 85.704329 C 41.344378 85.704329 41.308461 85.698377 41.274483 85.685726 C 41.240867 85.672713 41.211419 85.65253 41.186117 85.625781 C 41.161898 85.600117 41.141715 85.566892 41.126172 85.526046 C 41.11099 85.4852 41.103434 85.436552 41.103434 85.379801 C 41.103434 85.325581 41.110369 85.277865 41.124105 85.236658 C 41.138202 85.195089 41.157558 85.160932 41.182499 85.133822 C 41.208163 85.105989 41.2373 85.085339 41.269832 85.072327 C 41.302726 85.058952 41.339574 85.052173 41.38042 85.052173 C 41.430302 85.052173 41.477242 85.061022 41.52098 85.078011 C 41.564717 85.095 41.608811 85.121912 41.653271 85.159143 L 41.66154 85.159143 L 41.66154 85.031502 C 41.608765 85.005115 41.560739 84.986691 41.517362 84.976208 C 41.474348 84.965726 41.431031 84.960706 41.387655 84.960706 z M 43.409753 84.960706 C 43.321917 84.960706 43.249308 84.982442 43.192196 85.025818 C 43.135084 85.068833 43.106413 85.124105 43.106413 85.191699 C 43.106413 85.250618 43.12375 85.29849 43.158089 85.33536 C 43.19279 85.371868 43.245682 85.397693 43.317253 85.412874 C 43.352676 85.420104 43.386057 85.426262 43.417505 85.430961 C 43.449314 85.43566 43.478762 85.441302 43.505872 85.448531 C 43.541657 85.457929 43.56862 85.471333 43.58597 85.488322 C 43.603682 85.505311 43.612325 85.531602 43.612325 85.567387 C 43.612325 85.608956 43.593746 85.642181 43.556514 85.667122 C 43.519645 85.692064 43.467995 85.704329 43.401485 85.704329 C 43.354494 85.704329 43.304087 85.695376 43.25059 85.676941 C 43.197093 85.658506 43.149842 85.632371 43.108997 85.598393 L 43.101762 85.598393 L 43.101762 85.732751 C 43.149837 85.754078 43.197087 85.769967 43.243355 85.780811 C 43.289985 85.791655 43.342255 85.797347 43.400452 85.797347 C 43.454672 85.797347 43.500629 85.790723 43.538944 85.77771 C 43.577622 85.764697 43.61183 85.746584 43.640747 85.72345 C 43.667134 85.702123 43.687267 85.676143 43.701725 85.645418 C 43.716545 85.614694 43.723946 85.583848 43.723946 85.552401 C 43.723946 85.494566 43.708834 85.449179 43.678471 85.417008 C 43.648108 85.384838 43.603082 85.361083 43.543079 85.345178 C 43.513438 85.337587 43.477211 85.330187 43.434558 85.322957 C 43.391905 85.315728 43.35899 85.309414 43.335856 85.304354 C 43.292119 85.294233 43.261739 85.279587 43.244389 85.260429 C 43.227038 85.241271 43.218034 85.21498 43.218034 85.181364 C 43.218034 85.143771 43.235526 85.113237 43.270227 85.08938 C 43.305289 85.065523 43.351763 85.053206 43.409237 85.053206 C 43.461649 85.053206 43.512316 85.062211 43.562199 85.079561 C 43.612443 85.09655 43.653431 85.118131 43.684155 85.144157 L 43.69139 85.144157 L 43.69139 85.017033 C 43.654882 85.001128 43.613169 84.987569 43.565816 84.976725 C 43.518464 84.965881 43.466504 84.960706 43.409753 84.960706 z M 41.813468 84.975175 L 41.813468 85.782878 L 42.324032 85.782878 L 42.324032 85.687276 L 41.920439 85.687276 L 41.920439 84.975175 L 41.813468 84.975175 z M 43.896545 84.975175 L 43.896545 85.782878 L 44.428296 85.782878 L 44.428296 85.687276 L 44.004032 85.687276 L 44.004032 85.387553 L 44.428296 85.387553 L 44.428296 85.291951 L 44.004032 85.291951 L 44.004032 85.070776 L 44.428296 85.070776 L 44.428296 84.975175 L 43.896545 84.975175 z M 44.598828 84.975175 L 44.598828 85.782878 L 45.109391 85.782878 L 45.109391 85.687276 L 44.705798 85.687276 L 44.705798 84.975175 L 44.598828 84.975175 z " />
    <path
       id="text32"
       style="font-size:1.11043px;fill:#000000;fill-opacity:1;stroke:#000000;stroke-width:0.0925355;stroke-linejoin:round;stroke-opacity:1;paint-order:stroke markers fill"
       d="M 36.169368 93.027397 L 37.841618 93.027397 L 36.169368 93.027397 z M 38.160978 93.587052 L 38.164596 93.781873 L 37.968225 93.666117 L 37.933085 93.726062 L 38.139274 93.8382 L 37.933085 93.950338 L 37.968225 94.010282 L 38.164079 93.89401 L 38.160978 94.089347 L 38.231258 94.089347 L 38.227641 93.89401 L 38.424011 94.009766 L 38.458634 93.949821 L 38.252962 93.837683 L 38.458634 93.726579 L 38.424011 93.666634 L 38.227124 93.781873 L 38.231258 93.587052 L 38.160978 93.587052 z M 36.752795 93.608757 C 36.693515 93.608757 36.639846 93.618227 36.591048 93.636662 C 36.542612 93.655097 36.500847 93.681698 36.466508 93.71676 C 36.431084 93.752907 36.404172 93.797156 36.385376 93.849569 C 36.36658 93.901982 36.357471 93.961342 36.357471 94.027852 C 36.357471 94.097977 36.36689 94.159718 36.38641 94.212854 C 36.405929 94.265628 36.433357 94.309256 36.468058 94.343595 C 36.503482 94.378658 36.544885 94.404483 36.592598 94.42111 C 36.640674 94.437376 36.693721 94.445398 36.752279 94.445398 C 36.783365 94.445398 36.811881 94.442707 36.837545 94.437646 C 36.86357 94.432947 36.887842 94.427461 36.909892 94.420593 C 36.935917 94.41228 36.956516 94.404413 36.97242 94.396822 C 36.988686 94.389231 37.0068 94.380693 37.026681 94.372017 L 37.026681 94.246444 L 37.019446 94.246444 C 36.980046 94.281868 36.937505 94.308313 36.892322 94.326025 C 36.847138 94.343737 36.798801 94.352897 36.747111 94.352897 C 36.709518 94.352897 36.673602 94.346428 36.639624 94.333777 C 36.606008 94.320764 36.57656 94.301098 36.551257 94.274349 C 36.527039 94.248685 36.507373 94.214943 36.491829 94.174097 C 36.476648 94.133251 36.469092 94.084603 36.469092 94.027852 C 36.469092 93.973632 36.476027 93.925916 36.489762 93.884709 C 36.50386 93.84314 36.523215 93.808983 36.548157 93.781873 C 36.573821 93.75404 36.602958 93.73339 36.63549 93.720378 C 36.668383 93.707003 36.705232 93.700224 36.746077 93.700224 C 36.79596 93.700224 36.8429 93.709073 36.886637 93.726062 C 36.930375 93.743051 36.974469 93.769963 37.018929 93.807194 L 37.026681 93.807194 L 37.026681 93.68007 C 36.973906 93.653683 36.925879 93.635259 36.882503 93.624776 C 36.839489 93.614294 36.796172 93.608757 36.752795 93.608757 z M 39.006405 93.608757 C 38.947124 93.608757 38.892939 93.618227 38.844141 93.636662 C 38.795704 93.655097 38.754457 93.681698 38.720117 93.71676 C 38.684693 93.752907 38.657782 93.797156 38.638985 93.849569 C 38.620189 93.901982 38.610563 93.961342 38.610563 94.027852 C 38.610563 94.097977 38.620499 94.159718 38.640019 94.212854 C 38.659538 94.265628 38.68645 94.309256 38.721151 94.343595 C 38.756575 94.378658 38.797977 94.404483 38.845691 94.42111 C 38.893766 94.437376 38.94733 94.445398 39.005888 94.445398 C 39.036974 94.445398 39.06549 94.442707 39.091154 94.437646 C 39.11718 94.432947 39.140935 94.427461 39.162984 94.420593 C 39.18901 94.41228 39.210125 94.404413 39.226029 94.396822 C 39.242296 94.389231 39.260409 94.380693 39.28029 94.372017 L 39.28029 94.246444 L 39.272538 94.246444 C 39.233138 94.281868 39.191114 94.308313 39.145931 94.326025 C 39.100748 94.343737 39.051893 94.352897 39.000203 94.352897 C 38.962611 94.352897 38.927211 94.346428 38.893233 94.333777 C 38.859617 94.320764 38.830169 94.301098 38.804867 94.274349 C 38.780648 94.248685 38.760465 94.214943 38.744922 94.174097 C 38.72974 94.133251 38.722184 94.084603 38.722184 94.027852 C 38.722184 93.973632 38.729119 93.925916 38.742855 93.884709 C 38.756952 93.84314 38.776308 93.808983 38.801249 93.781873 C 38.826913 93.75404 38.85605 93.73339 38.888582 93.720378 C 38.921476 93.707003 38.958324 93.700224 38.99917 93.700224 C 39.049052 93.700224 39.095992 93.709073 39.13973 93.726062 C 39.183467 93.743051 39.227561 93.769963 39.272021 93.807194 L 39.28029 93.807194 L 39.28029 93.68007 C 39.227515 93.653683 39.179489 93.635259 39.136112 93.624776 C 39.093098 93.614294 39.049781 93.608757 39.006405 93.608757 z M 37.178609 93.623226 L 37.178609 94.430929 L 37.286096 94.430929 L 37.286096 94.110018 L 37.437508 94.110018 L 37.707259 94.430929 L 37.846785 94.430929 L 37.542928 94.077979 C 37.594256 94.058098 37.634572 94.02865 37.663851 93.989612 C 37.69313 93.950212 37.707776 93.901047 37.707776 93.842851 C 37.707776 93.799836 37.699599 93.764747 37.682971 93.736914 C 37.666705 93.70872 37.644037 93.685069 37.614758 93.666634 C 37.588733 93.650368 37.55944 93.639189 37.526908 93.633044 C 37.494376 93.626538 37.45375 93.623226 37.404952 93.623226 L 37.178609 93.623226 z M 39.432218 93.623226 L 39.432218 94.430929 L 39.942782 94.430929 L 39.942782 94.335327 L 39.539189 94.335327 L 39.539189 93.623226 L 39.432218 93.623226 z M 37.286096 93.715727 L 37.412187 93.715727 C 37.441104 93.715727 37.466308 93.71759 37.487634 93.721928 C 37.508961 93.725904 37.527385 93.733149 37.542928 93.743632 C 37.561724 93.755922 37.575283 93.771551 37.583236 93.789624 C 37.591549 93.807336 37.595638 93.827468 37.595638 93.850602 C 37.595638 93.880966 37.591705 93.906169 37.583752 93.92605 C 37.576162 93.945569 37.564362 93.963061 37.548096 93.978243 C 37.530384 93.994509 37.508803 94.005688 37.4835 94.011833 C 37.458197 94.017616 37.428595 94.020618 37.394617 94.020618 L 37.286096 94.020618 L 37.286096 93.715727 z " />
    <text
       xml:space="preserve"
       style="font-size:1.32056px;fill:#000000;fill-opacity:1;stroke:#000000;stroke-width:0.110047;stroke-linejoin:round;stroke-opacity:1;paint-order:stroke markers fill"
       x="50.37661"
       y="69.56472"
       id="text35"><tspan
         sodipodi:role="line"
         id="tspan35"
         style="stroke-width:0.110047"
         x="50.37661"
         y="69.56472">CR*CL + CR*SEL</tspan></text>
    <text
       xml:space="preserve"
       style="font-size:1.32056px;fill:#000000;fill-opacity:1;stroke:#000000;stroke-width:0.110047;stroke-linejoin:round;stroke-opacity:1;paint-order:stroke markers fill"
       x="49.88493"
       y="89.513168"
       id="text35-7"><tspan
         sodipodi:role="line"
         id="tspan35-6"
         style="stroke-width:0.110047"
         x="49.88493"
         y="89.513168">CR*CL + CL*SEL</tspan></text>
    <path
       style="fill:#000000;fill-opacity:1;stroke:#000000;stroke-width:0.264583;stroke-linejoin:round;stroke-opacity:1;paint-order:stroke markers fill"
       d="m 52.671606,67.638585 h 2.027129"
       id="path35" />
    <path
       style="fill:#000000;fill-opacity:1;stroke:#000000;stroke-width:0.264583;stroke-linejoin:round;stroke-opacity:1;paint-order:stroke markers fill"
       d="m 49.732265,87.639606 h 1.993347"
       id="path36" />
    <path
       style="fill:#000000;fill-opacity:1;stroke:#000000;stroke-width:0.264583;stroke-linejoin:round;stroke-opacity:1;paint-order:stroke markers fill"
       d="m 58.854352,87.605819 h 2.702841"
       id="path37" />
  </g>
</svg>
