<?xml version="1.0" encoding="UTF-8" standalone="no"?>
<!-- Created with Inkscape (http://www.inkscape.org/) -->

<svg
   width="210mm"
   height="297mm"
   viewBox="0 0 210 297"
   version="1.1"
   id="svg1"
   sodipodi:docname="Tema_3_ej._5_NAND.svg"
   inkscape:version="1.3.2 (091e20e, 2023-11-25, custom)"
   xmlns:inkscape="http://www.inkscape.org/namespaces/inkscape"
   xmlns:sodipodi="http://sodipodi.sourceforge.net/DTD/sodipodi-0.dtd"
   xmlns="http://www.w3.org/2000/svg"
   xmlns:svg="http://www.w3.org/2000/svg">
  <sodipodi:namedview
     id="namedview1"
     pagecolor="#ffffff"
     bordercolor="#999999"
     borderopacity="1"
     inkscape:showpageshadow="2"
     inkscape:pageopacity="0"
     inkscape:pagecheckerboard="0"
     inkscape:deskcolor="#d1d1d1"
     inkscape:document-units="mm"
     showguides="true"
     inkscape:zoom="2.768771"
     inkscape:cx="194.12945"
     inkscape:cy="293.09032"
     inkscape:window-width="1920"
     inkscape:window-height="991"
     inkscape:window-x="-9"
     inkscape:window-y="-9"
     inkscape:window-maximized="1"
     inkscape:current-layer="layer1" />
  <defs
     id="defs1" />
  <g
     inkscape:label="Capa 1"
     inkscape:groupmode="layer"
     id="layer1">
    <path
       id="path2-4"
       style="fill:#ffffff;stroke:#000000;stroke-width:0.264583;stroke-linejoin:round;paint-order:stroke markers fill"
       d="m 37.702277,73.525272 v 0.996321 h -1.507919 v 0.0677 h 1.507919 v 2.356446 2.356962 h -1.507919 v 0.0677 h 1.507919 v 0.996322 a 3.4207828,3.4207828 0 0 0 2.962609,-1.71049 3.4207828,3.4207828 0 0 0 0,-3.420463 3.4207828,3.4207828 0 0 0 -2.962609,-1.71049 z m 4.274674,2.775541 a 0.64509064,0.64509064 0 0 0 -0.644922,0.645439 0.64509064,0.64509064 0 0 0 0.644922,0.644921 0.64509064,0.64509064 0 0 0 0.645439,-0.644921 0.64509064,0.64509064 0 0 0 -0.645439,-0.645439 z" />
    <path
       id="path2-4-5"
       style="fill:#ffffff;stroke:#000000;stroke-width:0.264583;stroke-linejoin:round;paint-order:stroke markers fill"
       d="m 47.825517,94.655684 v 0.996321 h -1.507919 v 0.0677 h 1.507919 v 2.356446 2.356959 h -1.507919 v 0.0677 h 1.507919 v 0.99632 a 3.4207828,3.4207828 0 0 0 2.962609,-1.710487 3.4207828,3.4207828 0 0 0 0,-3.420461 3.4207828,3.4207828 0 0 0 -2.962609,-1.71049 z m 4.274674,2.775541 a 0.64509064,0.64509064 0 0 0 -0.644922,0.645439 0.64509064,0.64509064 0 0 0 0.644922,0.644921 0.64509064,0.64509064 0 0 0 0.645439,-0.644921 0.64509064,0.64509064 0 0 0 -0.645439,-0.645439 z" />
    <path
       id="path2-4-5-4"
       style="fill:#ffffff;stroke:#000000;stroke-width:0.264583;stroke-linejoin:round;paint-order:stroke markers fill"
       d="m 60.804141,87.281221 v 0.996321 h -1.507919 v 0.0677 h 1.507919 v 2.356446 2.35696 h -1.507919 v 0.0677 h 1.507919 v 0.99632 a 3.4207828,3.4207828 0 0 0 2.962609,-1.71049 3.4207828,3.4207828 0 0 0 0,-3.42046 3.4207828,3.4207828 0 0 0 -2.962609,-1.710489 z m 4.274674,2.775537 a 0.64509064,0.64509064 0 0 0 -0.644922,0.64544 0.64509064,0.64509064 0 0 0 0.644922,0.64492 0.64509064,0.64509064 0 0 0 0.645439,-0.64492 0.64509064,0.64509064 0 0 0 -0.645439,-0.64544 z" />
    <path
       id="path2-4-5-4-1"
       style="fill:#ffffff;stroke:#000000;stroke-width:0.264583;stroke-linejoin:round;paint-order:stroke markers fill"
       d="m 74.523195,86.511282 v 0.996321 h -1.507919 v 0.0677 h 1.507919 v 2.356446 2.35696 h -1.507919 v 0.0677 h 1.507919 v 0.99632 a 3.4207828,3.4207828 0 0 0 2.962609,-1.71049 3.4207828,3.4207828 0 0 0 0,-3.42046 3.4207828,3.4207828 0 0 0 -2.962609,-1.710489 z m 4.274674,2.775537 a 0.64509064,0.64509064 0 0 0 -0.644922,0.64544 0.64509064,0.64509064 0 0 0 0.644922,0.64492 0.64509064,0.64509064 0 0 0 0.645439,-0.64492 0.64509064,0.64509064 0 0 0 -0.645439,-0.64544 z" />
    <path
       id="path2-4-5-4-1-6"
       style="fill:#ffffff;stroke:#000000;stroke-width:0.264583;stroke-linejoin:round;paint-order:stroke markers fill"
       d="m 85.022119,91.479821 v 0.996321 H 83.5142 v 0.0677 h 1.507919 v 2.356446 2.35696 H 83.5142 v 0.0677 h 1.507919 v 0.99632 a 3.4207828,3.4207828 0 0 0 2.962609,-1.71049 3.4207828,3.4207828 0 0 0 0,-3.42046 3.4207828,3.4207828 0 0 0 -2.962609,-1.710489 z m 4.274674,2.775537 a 0.64509064,0.64509064 0 0 0 -0.644922,0.64544 0.64509064,0.64509064 0 0 0 0.644922,0.64492 0.64509064,0.64509064 0 0 0 0.645439,-0.64492 0.64509064,0.64509064 0 0 0 -0.645439,-0.64544 z" />
    <path
       id="path2-4-5-4-9"
       style="fill:#ffffff;stroke:#000000;stroke-width:0.264583;stroke-linejoin:round;paint-order:stroke markers fill"
       d="m 74.346323,97.860807 v 0.996321 h -1.507919 v 0.0677 h 1.507919 v 2.356442 2.35696 h -1.507919 v 0.0677 h 1.507919 v 0.99632 a 3.4207828,3.4207828 0 0 0 2.962609,-1.71049 3.4207828,3.4207828 0 0 0 0,-3.420456 3.4207828,3.4207828 0 0 0 -2.962609,-1.710489 z m 4.274674,2.775533 a 0.64509064,0.64509064 0 0 0 -0.644922,0.64544 0.64509064,0.64509064 0 0 0 0.644922,0.64492 0.64509064,0.64509064 0 0 0 0.645439,-0.64492 0.64509064,0.64509064 0 0 0 -0.645439,-0.64544 z" />
    <path
       id="path2-4-1"
       style="fill:#ffffff;stroke:#000000;stroke-width:0.264583;stroke-linejoin:round;paint-order:stroke markers fill"
       d="m 48.36212,62.270634 v 0.996321 h -1.507919 v 0.0677 h 1.507919 v 2.356446 2.356962 h -1.507919 v 0.0677 h 1.507919 v 0.996322 a 3.4207828,3.4207828 0 0 0 2.962609,-1.71049 3.4207828,3.4207828 0 0 0 0,-3.420463 3.4207828,3.4207828 0 0 0 -2.962609,-1.71049 z m 4.274674,2.775541 a 0.64509064,0.64509064 0 0 0 -0.644922,0.645439 0.64509064,0.64509064 0 0 0 0.644922,0.644921 0.64509064,0.64509064 0 0 0 0.645439,-0.644921 0.64509064,0.64509064 0 0 0 -0.645439,-0.645439 z" />
    <path
       id="path2-4-1-4"
       style="fill:#ffffff;stroke:#000000;stroke-width:0.264583;stroke-linejoin:round;paint-order:stroke markers fill"
       d="m 64.091703,67.446359 v 0.996321 h -1.507919 v 0.0677 h 1.507919 v 2.356446 2.356962 h -1.507919 v 0.0677 h 1.507919 v 0.996322 a 3.4207828,3.4207828 0 0 0 2.962609,-1.71049 3.4207828,3.4207828 0 0 0 0,-3.420463 3.4207828,3.4207828 0 0 0 -2.962609,-1.71049 z m 4.274674,2.775541 a 0.64509064,0.64509064 0 0 0 -0.644922,0.645439 0.64509064,0.64509064 0 0 0 0.644922,0.644921 0.64509064,0.64509064 0 0 0 0.645439,-0.644921 0.64509064,0.64509064 0 0 0 -0.645439,-0.645439 z" />
    <path
       id="path2-4-1-1"
       style="fill:#ffffff;stroke:#000000;stroke-width:0.264583;stroke-linejoin:round;paint-order:stroke markers fill"
       d="m 53.645412,77.379378 v 0.996321 h -1.507919 v 0.0677 h 1.507919 v 2.356446 2.356962 h -1.507919 v 0.0677 h 1.507919 v 0.996322 a 3.4207828,3.4207828 0 0 0 2.962609,-1.71049 3.4207828,3.4207828 0 0 0 0,-3.420463 3.4207828,3.4207828 0 0 0 -2.962609,-1.71049 z m 4.274674,2.775541 a 0.64509064,0.64509064 0 0 0 -0.644922,0.645439 0.64509064,0.64509064 0 0 0 0.644922,0.644921 0.64509064,0.64509064 0 0 0 0.645439,-0.644921 0.64509064,0.64509064 0 0 0 -0.645439,-0.645439 z" />
    <g
       id="g39">
      <path
         id="rect1"
         style="fill:#ff0000;stroke:#000000;stroke-width:0.123389;stroke-linejoin:round;paint-order:stroke markers fill"
         d="m 13.504607,66.452918 0.0027,3.230291 2.79626,-1.617314 z m -6.27333,0.590196 v 2.0499 h 6.14994 v -2.0499 z" />
      <path
         id="text23"
         style="font-size:1.5875px;fill:#000000;stroke:#000000;stroke-width:0.132291;stroke-linejoin:round;paint-order:stroke markers fill"
         d="m 9.746732,67.539196 c -0.084749,0 -0.161747,0.01344 -0.23151,0.03979 -0.069247,0.02635 -0.128675,0.0646 -0.177767,0.114722 -0.050643,0.05168 -0.0894,0.114721 -0.116272,0.189652 -0.026872,0.07493 -0.040308,0.160197 -0.040308,0.255281 0,0.100252 0.013953,0.188103 0.041858,0.264067 0.027905,0.07545 0.066663,0.137977 0.116272,0.18707 0.050643,0.05012 0.110071,0.08682 0.178284,0.110586 0.068729,0.02326 0.145211,0.03514 0.228926,0.03514 0.044442,0 0.08475,-0.0036 0.12144,-0.01085 0.037207,-0.0067 0.07183,-0.01498 0.103353,-0.02481 0.037207,-0.01188 0.067179,-0.02325 0.089917,-0.0341 0.02325,-0.01085 0.04909,-0.02274 0.07752,-0.03514 v -0.179835 h -0.01085 c -0.05633,0.05064 -0.116789,0.08888 -0.181385,0.114205 -0.064595,0.02532 -0.133842,0.03772 -0.207739,0.03772 -0.053743,0 -0.104903,-0.0088 -0.153479,-0.02687 -0.048059,-0.0186 -0.090434,-0.04703 -0.126607,-0.08527 -0.034623,-0.03669 -0.063046,-0.08423 -0.085266,-0.142626 -0.021704,-0.0584 -0.032557,-0.128158 -0.032557,-0.209291 0,-0.07751 0.00982,-0.145726 0.029456,-0.204638 0.020154,-0.05943 0.048059,-0.108521 0.083716,-0.147278 0.03669,-0.03979 0.078548,-0.06925 0.125057,-0.08785 0.047025,-0.01912 0.099735,-0.02842 0.15813,-0.02842 0.071313,0 0.137976,0.01189 0.200504,0.03617 0.062529,0.02429 0.125574,0.06305 0.189136,0.116271 h 0.01189 v -0.1819 c -0.07545,-0.03772 -0.144178,-0.06408 -0.206189,-0.07906 -0.061495,-0.01499 -0.123507,-0.02274 -0.185519,-0.02274 z m 0.608749,0.02119 v 1.153935 h 0.153479 v -0.45889 h 0.216007 l 0.386023,0.458887 h 0.199471 l -0.434082,-0.504362 c 0.07338,-0.02842 0.130741,-0.0708 0.172599,-0.126607 0.04186,-0.05633 0.06305,-0.12609 0.06305,-0.20929 0,-0.06149 -0.01189,-0.112137 -0.03566,-0.151929 -0.02326,-0.04031 -0.05581,-0.07338 -0.09767,-0.09973 -0.03721,-0.02326 -0.07906,-0.03928 -0.125573,-0.04806 -0.04651,-0.0093 -0.104904,-0.01395 -0.174667,-0.01395 z m 0.153479,0.131775 h 0.18035 c 0.04134,0 0.07752,0.0031 0.108004,0.0093 0.03049,0.0057 0.05684,0.01602 0.07906,0.031 0.02687,0.01757 0.04599,0.03928 0.05736,0.06511 0.01189,0.02532 0.01757,0.05426 0.01757,0.08733 0,0.04341 -0.0057,0.07958 -0.01705,0.108005 -0.01085,0.02791 -0.02791,0.05271 -0.05116,0.07441 -0.02532,0.02325 -0.05581,0.03927 -0.09198,0.04806 -0.03617,0.0083 -0.07855,0.0124 -0.127124,0.0124 h -0.155029 z" />
    </g>
    <g
       id="g40">
      <path
         id="rect1-1"
         style="fill:#0000ff;stroke:#000000;stroke-width:0.123389;stroke-linejoin:round;paint-order:stroke markers fill"
         d="m 13.418652,80.954442 0.0027,3.23029 2.79626,-1.61731 z m -6.2733307,0.5902 v 2.0499 h 6.1499407 v -2.0499 z" />
      <text
         xml:space="preserve"
         style="font-size:1.86166px;fill:#000000;stroke:#000000;stroke-width:0.155138;stroke-linejoin:round;paint-order:stroke markers fill"
         x="8.9634733"
         y="83.319794"
         id="text24"><tspan
           sodipodi:role="line"
           id="tspan24"
           style="stroke-width:0.155138"
           x="8.9634733"
           y="83.319794">CL</tspan></text>
    </g>
    <g
       id="g41">
      <path
         id="rect1-1-3"
         style="fill:#808080;stroke:#000000;stroke-width:0.123389;stroke-linejoin:round;paint-order:stroke markers fill"
         d="m 13.686791,96.430517 0.0027,3.230291 2.79626,-1.617315 z m -6.2733296,0.590195 v 2.049899 h 6.1499406 v -2.049899 z" />
      <text
         xml:space="preserve"
         style="font-size:1.51905px;fill:#000000;stroke:#000000;stroke-width:0.126587;stroke-linejoin:round;paint-order:stroke markers fill"
         x="8.9626026"
         y="98.54673"
         id="text25"><tspan
           sodipodi:role="line"
           id="tspan25"
           style="stroke-width:0.126587"
           x="8.9626026"
           y="98.54673">SEL</tspan></text>
    </g>
    <g
       id="g37"
       transform="translate(9.4363507,-2.6004895)">
      <path
         id="rect1-2"
         style="fill:#ffffff;stroke:#000000;stroke-width:0.123389;stroke-linejoin:round;paint-order:stroke markers fill"
         d="m 74.297507,71.771518 0.0027,3.230291 2.79626,-1.617314 z m -6.27333,0.590196 v 2.0499 h 6.14994 v -2.0499 z" />
      <text
         xml:space="preserve"
         style="font-size:2.28707px;fill:#000000;stroke:#000000;stroke-width:0.190589;stroke-linejoin:round;paint-order:stroke markers fill"
         x="70.486694"
         y="74.222473"
         id="text26"><tspan
           sodipodi:role="line"
           id="tspan26"
           style="stroke-width:0.190589"
           x="70.486694"
           y="74.222473">R</tspan></text>
    </g>
    <g
       id="g38"
       transform="translate(36.340106,0.64854528)">
      <path
         id="rect1-0"
         style="fill:#ffffff;stroke:#000000;stroke-width:0.123389;stroke-linejoin:round;paint-order:stroke markers fill"
         d="m 71.797017,93.242642 0.0027,3.230291 2.79626,-1.617314 z m -6.27333,0.590196 v 2.0499 h 6.14994 v -2.0499 z" />
      <text
         xml:space="preserve"
         style="font-size:1.8998px;fill:#000000;stroke:#000000;stroke-width:0.158316;stroke-linejoin:round;paint-order:stroke markers fill"
         x="67.855316"
         y="95.456154"
         id="text27"><tspan
           sodipodi:role="line"
           id="tspan27"
           style="stroke-width:0.158316"
           x="67.855316"
           y="95.456154">L</tspan></text>
    </g>
    <text
       xml:space="preserve"
       style="font-size:3.175px;fill:#000000;fill-opacity:1;stroke:#808080;stroke-width:0.264583;stroke-linejoin:round;stroke-opacity:1;paint-order:stroke markers fill"
       x="36.31274"
       y="62.973938"
       id="text28"><tspan
         sodipodi:role="line"
         id="tspan28"
         style="stroke-width:0.264583;fill:#000000"
         x="36.31274"
         y="62.973938" /></text>
    <path
       style="fill:none;fill-opacity:1;stroke:#0000ff;stroke-width:0.264583;stroke-linejoin:round;stroke-opacity:1;paint-order:stroke markers fill"
       d="m 36.194357,74.589292 v 4.781109"
       id="path41" />
    <path
       style="fill:none;fill-opacity:1;stroke:#0000ff;stroke-width:0.264583;stroke-linejoin:round;stroke-opacity:1;paint-order:stroke markers fill"
       d="m 36.194357,76.979845 h -3.557556 l 0,5.727075 -16.419189,-0.139498"
       id="path42"
       sodipodi:nodetypes="cccc" />
    <path
       style="fill:none;fill-opacity:1;stroke:#ff0000;stroke-width:0.264583;stroke-linejoin:round;stroke-opacity:1;paint-order:stroke markers fill"
       d="M 46.854199,63.334653 H 23.173262 l 0,4.799515 -6.869695,-0.06827"
       id="path43"
       sodipodi:nodetypes="cccc" />
    <path
       style="fill:none;fill-opacity:1;stroke:#0000ff;stroke-width:0.264583;stroke-linejoin:round;stroke-opacity:1;paint-order:stroke markers fill"
       d="m 42.62239,76.946251 h 1.956276 v -8.818055 l 2.275533,-0.01243"
       id="path44"
       sodipodi:nodetypes="cccc" />
    <path
       style="fill:none;fill-opacity:1;stroke:#808080;stroke-width:0.264583;stroke-linejoin:round;stroke-opacity:1;paint-order:stroke markers fill"
       d="M 52.137492,83.224507 H 40.475037 V 91.89658 H 25.879698 v 6.081389 h -9.507645"
       id="path45" />
    <path
       style="fill:none;fill-opacity:1;stroke:#ff0000;stroke-width:0.264583;stroke-linejoin:round;stroke-opacity:1;paint-order:stroke markers fill"
       d="M 41.758888,63.334653 V 72.0307 h 1.625282 c 0.21628,-0.756665 1.285749,-2.2631 1.851472,0 h 1.851473 v 6.400043 h 5.050377"
       id="path46"
       sodipodi:nodetypes="ccccccc" />
    <circle
       style="fill:#ff0000;fill-opacity:1;stroke:#ff0000;stroke-width:0.120067;stroke-linejoin:round;stroke-opacity:1;paint-order:stroke markers fill"
       id="path47"
       cx="41.799549"
       cy="63.334652"
       r="0.41738451" />
    <circle
       style="fill:#0000ff;fill-opacity:1;stroke:#0000ff;stroke-width:0.120067;stroke-linejoin:round;stroke-opacity:1;paint-order:stroke markers fill"
       id="path47-5"
       cx="36.194359"
       cy="76.979843"
       r="0.41738451" />
    <circle
       style="fill:#0000ff;fill-opacity:1;stroke:#0000ff;stroke-width:0.120067;stroke-linejoin:round;stroke-opacity:1;paint-order:stroke markers fill"
       id="path47-5-4"
       cx="20.266306"
       cy="82.601776"
       r="0.41738451" />
    <circle
       style="fill:#0000ff;fill-opacity:1;stroke:#0000ff;stroke-width:0.120067;stroke-linejoin:round;stroke-opacity:1;paint-order:stroke markers fill"
       id="path47-5-2"
       cx="67.875084"
       cy="96.049347"
       r="0.41738451" />
    <circle
       style="fill:#808080;fill-opacity:1;stroke:#808080;stroke-width:0.120067;stroke-linejoin:round;stroke-opacity:1;paint-order:stroke markers fill"
       id="path47-5-5"
       cx="25.879698"
       cy="97.977966"
       r="0.41738451" />
    <circle
       style="fill:#808080;fill-opacity:1;stroke:#808080;stroke-width:0.120067;stroke-linejoin:round;stroke-opacity:1;paint-order:stroke markers fill"
       id="path47-5-5-8"
       cx="46.317596"
       cy="97.979546"
       r="0.41738451" />
    <path
       style="fill:none;fill-opacity:1;stroke:#000000;stroke-width:0.264583;stroke-linejoin:round;stroke-opacity:1;paint-order:stroke markers fill"
       d="m 53.282233,65.691614 h 4.937601 v 2.753124 l 4.36395,0.06564"
       id="path48"
       sodipodi:nodetypes="cccc" />
    <path
       style="fill:none;fill-opacity:1;stroke:#000000;stroke-width:0.264583;stroke-linejoin:round;stroke-opacity:1;paint-order:stroke markers fill"
       d="m 58.565525,80.800357 h 1.183267 V 73.2944 l 2.834992,-0.0029"
       id="path49" />
    <path
       style="fill:none;fill-opacity:1;stroke:#808080;stroke-width:0.264583;stroke-linejoin:round;stroke-opacity:1;paint-order:stroke markers fill"
       d="M 46.317597,100.50081 V 95.719704"
       id="path50" />
    <path
       style="fill:none;fill-opacity:1;stroke:#808080;stroke-width:0.264583;stroke-linejoin:round;stroke-opacity:1;paint-order:stroke markers fill"
       d="M 25.879698,97.977967 H 46.185306"
       id="path51" />
    <path
       style="fill:none;fill-opacity:1;stroke:#ff0000;stroke-width:0.264583;stroke-linejoin:round;stroke-opacity:1;paint-order:stroke markers fill"
       d="m 59.296223,88.311391 v 4.747255"
       id="path52" />
    <path
       style="fill:none;fill-opacity:1;stroke:#ff0000;stroke-width:0.264583;stroke-linejoin:round;stroke-opacity:1;paint-order:stroke markers fill"
       d="m 27.366261,63.334653 v 16.736999 c 3.031779,1.982019 2.159909,3.616108 0,5.135396 v 3.175839 l 11.740027,0 c 0.752796,-1.353565 1.490897,-2.802985 2.88096,0 l 2.271767,0 v 1.959559 h 15.037208"
       id="path53"
       sodipodi:nodetypes="ccccccccc" />
    <circle
       style="fill:#ff0000;fill-opacity:1;stroke:#ff0000;stroke-width:0.120067;stroke-linejoin:round;stroke-opacity:1;paint-order:stroke markers fill"
       id="path47-57"
       cx="27.333214"
       cy="63.334652"
       r="0.41738451" />
    <circle
       style="fill:#ff0000;fill-opacity:1;stroke:#ff0000;stroke-width:0.120067;stroke-linejoin:round;stroke-opacity:1;paint-order:stroke markers fill"
       id="path47-1"
       cx="59.229389"
       cy="90.342445"
       r="0.41738451" />
    <path
       style="fill:none;fill-opacity:1;stroke:#0000ff;stroke-width:0.264583;stroke-linejoin:round;stroke-opacity:1;paint-order:stroke markers fill"
       d="m 20.261611,82.601778 v 12.098028 h 3.726099 c 1.018476,-1.093746 1.96737,-2.40159 4.121832,0 h 15.980545 v -1.688304 h 9.291015 2.905554 v 3.040695 h 11.554642"
       id="path54"
       sodipodi:nodetypes="cccccccccc" />
    <path
       style="fill:none;fill-opacity:1;stroke:#0000ff;stroke-width:0.264583;stroke-linejoin:round;stroke-opacity:1;paint-order:stroke markers fill"
       d="m 73.015276,92.356403 -5.173978,0.04696 v 3.648834 l 0,2.804198 4.997106,0.06843"
       id="path55" />
    <path
       style="fill:none;fill-opacity:1;stroke:#ff0000;stroke-width:0.264583;stroke-linejoin:round;stroke-opacity:1;paint-order:stroke markers fill"
       d="m 65.724253,90.702198 h 2.488684 v -3.163949 l 4.802339,0.03705"
       id="path56" />
    <path
       style="fill:none;fill-opacity:1;stroke:#808080;stroke-width:0.264583;stroke-linejoin:round;stroke-opacity:1;paint-order:stroke markers fill"
       d="m 52.745629,98.076662 h 6.750648 v 5.475918 l 13.342127,0.15335"
       id="path57" />
    <path
       style="fill:none;fill-opacity:0.933333;stroke:#000000;stroke-width:0.264583;stroke-linejoin:round;stroke-opacity:1;paint-order:stroke markers fill"
       d="m 79.443306,89.932258 h 1.895303 v 2.504889 l 2.17559,0.03899"
       id="path58" />
    <path
       style="fill:none;fill-opacity:0.933333;stroke:#000000;stroke-width:0.264583;stroke-linejoin:round;stroke-opacity:1;paint-order:stroke markers fill"
       d="m 79.266435,101.28178 h 1.649855 v -3.945735 l 2.597909,-0.01111"
       id="path59" />
    <path
       style="fill:none;fill-opacity:0.933333;stroke:#000000;stroke-width:0.264583;stroke-linejoin:round;stroke-opacity:1;paint-order:stroke markers fill"
       d="m 89.94223,94.900796 11.92156,0.605536"
       id="path60" />
    <path
       style="fill:none;fill-opacity:0.933333;stroke:#000000;stroke-width:0.264583;stroke-linejoin:round;stroke-opacity:1;paint-order:stroke markers fill"
       d="m 69.011815,70.867338 h 8.448712"
       id="path61" />
    <text
       xml:space="preserve"
       style="font-size:1.51905px;fill:#1a1a1a;fill-opacity:0.933333;stroke:#000000;stroke-width:0.126587;stroke-linejoin:round;stroke-opacity:1;paint-order:stroke markers fill"
       x="37.101208"
       y="72.811859"
       id="text61"><tspan
         sodipodi:role="line"
         id="tspan61"
         style="fill:#1a1a1a;stroke-width:0.126587"
         x="37.101208"
         y="72.811859">CL</tspan></text>
    <text
       xml:space="preserve"
       style="font-size:1.51905px;fill:#1a1a1a;fill-opacity:0.933333;stroke:#000000;stroke-width:0.126587;stroke-linejoin:round;stroke-opacity:1;paint-order:stroke markers fill"
       x="47.91177"
       y="61.094063"
       id="text61-3"><tspan
         sodipodi:role="line"
         id="tspan61-3"
         style="fill:#1a1a1a;stroke-width:0.126587"
         x="47.91177"
         y="61.094063">CR*CL</tspan></text>
    <text
       xml:space="preserve"
       style="font-size:1.51905px;fill:#1a1a1a;fill-opacity:0.933333;stroke:#000000;stroke-width:0.126587;stroke-linejoin:round;stroke-opacity:1;paint-order:stroke markers fill"
       x="64.109894"
       y="65.944946"
       id="text61-0"><tspan
         sodipodi:role="line"
         id="tspan61-5"
         style="fill:#1a1a1a;stroke-width:0.126587"
         x="64.109894"
         y="65.944946">CR*CL*CR*SEL</tspan></text>
    <text
       xml:space="preserve"
       style="font-size:1.51905px;fill:#1a1a1a;fill-opacity:0.933333;stroke:#000000;stroke-width:0.126587;stroke-linejoin:round;stroke-opacity:1;paint-order:stroke markers fill"
       x="51.242451"
       y="76.984787"
       id="text61-7"><tspan
         sodipodi:role="line"
         id="tspan61-9"
         style="fill:#1a1a1a;stroke-width:0.126587"
         x="51.242451"
         y="76.984787">CR*SEL</tspan></text>
    <text
       xml:space="preserve"
       style="font-size:1.51905px;fill:#1a1a1a;fill-opacity:0.933333;stroke:#000000;stroke-width:0.126587;stroke-linejoin:round;stroke-opacity:1;paint-order:stroke markers fill"
       x="59.973919"
       y="86.237793"
       id="text61-78"><tspan
         sodipodi:role="line"
         id="tspan61-6"
         style="fill:#1a1a1a;stroke-width:0.126587"
         x="59.973919"
         y="86.237793">CR</tspan></text>
    <text
       xml:space="preserve"
       style="font-size:1.51905px;fill:#1a1a1a;fill-opacity:0.933333;stroke:#000000;stroke-width:0.126587;stroke-linejoin:round;stroke-opacity:1;paint-order:stroke markers fill"
       x="46.946712"
       y="103.4667"
       id="text61-6"><tspan
         sodipodi:role="line"
         id="tspan61-0"
         style="fill:#1a1a1a;stroke-width:0.126587"
         x="46.946712"
         y="103.4667">SEL</tspan></text>
    <text
       xml:space="preserve"
       style="font-size:1.51905px;fill:#1a1a1a;fill-opacity:0.933333;stroke:#000000;stroke-width:0.126587;stroke-linejoin:round;stroke-opacity:1;paint-order:stroke markers fill"
       x="73.911224"
       y="85.601891"
       id="text61-4"><tspan
         sodipodi:role="line"
         id="tspan61-2"
         style="fill:#1a1a1a;stroke-width:0.126587"
         x="73.911224"
         y="85.601891">CR*CL</tspan><tspan
         sodipodi:role="line"
         style="fill:#1a1a1a;stroke-width:0.126587"
         x="73.911224"
         y="87.500702"
         id="tspan69" /></text>
    <text
       xml:space="preserve"
       style="font-size:1.51905px;fill:#1a1a1a;fill-opacity:0.933333;stroke:#000000;stroke-width:0.126587;stroke-linejoin:round;stroke-opacity:1;paint-order:stroke markers fill"
       x="89.016441"
       y="92.564957"
       id="text61-5"><tspan
         sodipodi:role="line"
         id="tspan61-7"
         style="fill:#1a1a1a;stroke-width:0.126587"
         x="89.016441"
         y="92.564957">CR*CL*CL*SEL</tspan></text>
    <text
       xml:space="preserve"
       style="font-size:1.51905px;fill:#1a1a1a;fill-opacity:0.933333;stroke:#000000;stroke-width:0.126587;stroke-linejoin:round;stroke-opacity:1;paint-order:stroke markers fill"
       x="74.096062"
       y="96.747093"
       id="text61-55"><tspan
         sodipodi:role="line"
         id="tspan61-21"
         style="fill:#1a1a1a;stroke-width:0.126587"
         x="74.096062"
         y="96.747093">CL*SEL</tspan></text>
    <path
       style="fill:#1a1a1a;fill-opacity:0.933333;stroke:#000000;stroke-width:0.264583;stroke-linejoin:round;stroke-opacity:1;paint-order:stroke markers fill"
       d="m 36.838321,70.833736 h 2.173986"
       id="path62" />
    <path
       style="fill:#1a1a1a;fill-opacity:0.933333;stroke:#000000;stroke-width:0.264583;stroke-linejoin:round;stroke-opacity:1;paint-order:stroke markers fill"
       d="m 51.052846,59.127654 h 1.839529"
       id="path63" />
    <path
       style="fill:#1a1a1a;fill-opacity:0.933333;stroke:#000000;stroke-width:0.264583;stroke-linejoin:round;stroke-opacity:1;paint-order:stroke markers fill"
       d="m 47.827702,58.339285 h 5.040781"
       id="path64" />
    <path
       style="fill:#1a1a1a;fill-opacity:0.933333;stroke:#000000;stroke-width:0.264583;stroke-linejoin:round;stroke-opacity:1;paint-order:stroke markers fill"
       d="m 51.117473,75.003826 h 6.182746"
       id="path65" />
    <path
       style="fill:#1a1a1a;fill-opacity:0.933333;stroke:#000000;stroke-width:0.264583;stroke-linejoin:round;stroke-opacity:1;paint-order:stroke markers fill"
       d="m 67.334515,63.922179 h 1.486562"
       id="path66" />
    <path
       style="fill:#1a1a1a;fill-opacity:0.933333;stroke:#000000;stroke-width:0.264583;stroke-linejoin:round;stroke-opacity:1;paint-order:stroke markers fill"
       d="m 64.091107,63.111326 h 4.898898"
       id="path67" />
    <path
       style="fill:#1a1a1a;fill-opacity:0.933333;stroke:#000000;stroke-width:0.264583;stroke-linejoin:round;stroke-opacity:1;paint-order:stroke markers fill"
       d="m 70.197838,63.10288 h 5.473251"
       id="path68" />
    <path
       style="fill:#1a1a1a;fill-opacity:0.933333;stroke:#000000;stroke-width:0.264583;stroke-linejoin:round;stroke-opacity:1;paint-order:stroke markers fill"
       d="M 64.023536,62.435616 H 75.814678"
       id="path69" />
    <path
       style="fill:#1a1a1a;fill-opacity:0.933333;stroke:#000000;stroke-width:0.264583;stroke-linejoin:round;stroke-opacity:1;paint-order:stroke markers fill"
       d="m 46.776544,101.98625 h 3.201255"
       id="path70" />
    <path
       style="fill:#1a1a1a;fill-opacity:0.933333;stroke:#000000;stroke-width:0.264583;stroke-linejoin:round;stroke-opacity:1;paint-order:stroke markers fill"
       d="m 59.462114,84.259893 h 3.081805"
       id="path71" />
    <path
       style="fill:#1a1a1a;fill-opacity:0.933333;stroke:#000000;stroke-width:0.264583;stroke-linejoin:round;stroke-opacity:1;paint-order:stroke markers fill"
       d="m 73.581079,83.614865 h 2.197878"
       id="path72" />
    <path
       style="fill:#1a1a1a;fill-opacity:0.933333;stroke:#000000;stroke-width:0.264583;stroke-linejoin:round;stroke-opacity:1;paint-order:stroke markers fill"
       d="m 73.342182,82.712963 h 5.63803"
       id="path73" />
    <path
       style="fill:#1a1a1a;fill-opacity:0.933333;stroke:#000000;stroke-width:0.264583;stroke-linejoin:round;stroke-opacity:1;paint-order:stroke markers fill"
       d="m 76.973455,95.129825 h 2.819014"
       id="path74" />
    <path
       style="fill:#1a1a1a;fill-opacity:0.933333;stroke:#000000;stroke-width:0.264583;stroke-linejoin:round;stroke-opacity:1;paint-order:stroke markers fill"
       d="m 74.441118,94.556465 h 5.208013"
       id="path75" />
    <path
       style="fill:#1a1a1a;fill-opacity:0.933333;stroke:#000000;stroke-width:0.264583;stroke-linejoin:round;stroke-opacity:1;paint-order:stroke markers fill"
       d="m 88.923454,90.730979 h 2.07781"
       id="path76" />
    <path
       style="fill:#1a1a1a;fill-opacity:0.933333;stroke:#000000;stroke-width:0.264583;stroke-linejoin:round;stroke-opacity:1;paint-order:stroke markers fill"
       d="m 97.79215,90.663407 h 2.53391"
       id="path77" />
    <path
       style="fill:#1a1a1a;fill-opacity:0.933333;stroke:#000000;stroke-width:0.264583;stroke-linejoin:round;stroke-opacity:1;paint-order:stroke markers fill"
       d="m 88.88967,89.768091 h 4.577934"
       id="path78" />
    <path
       style="fill:#1a1a1a;fill-opacity:0.933333;stroke:#000000;stroke-width:0.264583;stroke-linejoin:round;stroke-opacity:1;paint-order:stroke markers fill"
       d="m 95.072416,89.784985 h 5.253644"
       id="path79" />
    <path
       style="fill:#1a1a1a;fill-opacity:0.933333;stroke:#000000;stroke-width:0.264583;stroke-linejoin:round;stroke-opacity:1;paint-order:stroke markers fill"
       d="M 88.872776,89.041704 H 100.32606"
       id="path80" />
  </g>
</svg>
